<?xml version="1.0" standalone="no"?>
<!DOCTYPE svg PUBLIC "-//W3C//DTD SVG 20010904//EN"
 "http://www.w3.org/TR/2001/REC-SVG-20010904/DTD/svg10.dtd">
<svg version="1.0" xmlns="http://www.w3.org/2000/svg"
 width="150" height="50" viewBox="0 0 200.000000 200.000000"
 preserveAspectRatio="xMidYMid meet">
<metadata>
Created by potrace 1.10, written by Peter Selinger 2001-2011
</metadata>
<g transform="translate(0.000000,200.000000) scale(0.100000,-0.100000)"
fill="#000000" stroke="none">
<path d="M1054 1621 c-50 -31 -64 -58 -64 -127 0 -96 52 -144 121 -109 37 20
49 50 49 126 l0 59 33 0 c37 0 59 -19 76 -63 10 -25 13 -27 52 -21 l42 7 -6
-39 c-9 -52 -29 -64 -103 -64 -35 0 -74 -5 -88 -11 -47 -22 -79 -136 -69 -246
5 -43 3 -53 -10 -53 -9 0 -20 15 -27 34 -15 46 -79 102 -132 116 -47 13 -105
7 -149 -16 -35 -17 -89 -89 -89 -116 0 -13 -6 -18 -17 -16 -14 2 -17 11 -14
33 6 59 41 179 56 195 21 23 19 40 -4 40 -25 0 -56 -64 -76 -158 -26 -125 -17
-157 42 -150 22 2 33 12 48 45 40 83 99 120 176 110 53 -7 98 -42 122 -96 22
-51 32 -61 63 -61 37 0 47 25 49 128 2 96 19 161 45 177 7 5 47 9 88 10 88 3
110 18 123 89 12 65 5 76 -46 76 -38 0 -44 3 -55 29 -13 33 -62 61 -107 61
-15 0 -37 7 -47 15 -26 20 -45 19 -82 -4z m67 -96 c-3 -67 -21 -105 -51 -105
-25 0 -40 29 -40 78 0 52 32 94 68 90 25 -3 26 -5 23 -63z"/>
<path d="M610 1548 c1 -36 52 -130 83 -153 25 -17 43 -20 150 -20 105 0 122 2
125 17 3 14 -11 17 -117 20 -139 4 -154 12 -191 104 -23 55 -50 73 -50 32z"/>
<path d="M1184 1529 c-3 -6 -2 -15 4 -21 13 -13 32 -2 32 18 0 16 -26 19 -36
3z"/>
<path d="M1190 1290 c0 -13 7 -20 19 -20 24 0 71 -37 71 -56 0 -17 -22 -18
-38 -2 -16 16 -35 -3 -26 -25 8 -22 47 -32 72 -18 30 16 36 46 16 80 -32 53
-114 83 -114 41z"/>
<path d="M812 1148 c-7 -7 -7 -19 -1 -36 8 -21 7 -29 -6 -39 -20 -14 -11 -33
15 -33 26 0 41 32 34 69 -8 38 -26 55 -42 39z"/>
<path d="M374 855 c-4 -8 -4 -28 -2 -44 4 -28 3 -29 -29 -24 -42 7 -70 -16
-79 -63 -11 -58 45 -115 89 -92 12 6 23 6 31 -1 8 -6 21 -9 30 -5 13 5 16 24
16 125 l0 119 -25 0 c-14 0 -28 -7 -31 -15z m-6 -143 c4 -26 -22 -40 -43 -22
-11 9 -12 17 -4 32 13 25 43 19 47 -10z"/>
<path d="M850 821 c0 -21 -5 -31 -15 -31 -8 0 -15 -9 -15 -20 0 -11 7 -23 15
-26 10 -4 15 -19 15 -43 0 -43 15 -66 49 -74 48 -12 71 36 26 53 -37 14 -35
58 3 62 38 4 38 42 -1 46 -23 3 -27 7 -25 30 3 23 -1 27 -24 30 -25 3 -28 0
-28 -27z"/>
<path d="M1830 820 c0 -20 -5 -30 -15 -30 -9 0 -15 -9 -15 -25 0 -16 6 -25 15
-25 11 0 15 -12 15 -44 0 -49 14 -66 57 -69 24 -2 28 2 31 26 3 22 -1 27 -17
27 -17 0 -21 6 -21 30 0 25 4 30 25 30 20 0 25 5 25 25 0 20 -5 25 -25 25 -21
0 -25 5 -25 30 0 25 -4 30 -25 30 -21 0 -25 -5 -25 -30z"/>
<path d="M504 790 c-12 -5 -29 -19 -38 -32 -51 -72 33 -165 112 -124 33 17 42
34 42 76 0 42 -9 59 -41 75 -31 17 -44 18 -75 5z m61 -80 c0 -18 -6 -26 -23
-28 -13 -2 -25 3 -28 12 -10 26 4 48 28 44 17 -2 23 -10 23 -28z"/>
<path d="M1670 787 c-81 -42 -48 -167 44 -167 40 0 71 22 63 43 -4 11 -15 14
-45 10 -24 -3 -42 -1 -46 6 -5 7 7 11 36 11 66 0 88 34 51 79 -23 27 -71 35
-103 18z m60 -52 c0 -10 -10 -15 -26 -15 -22 0 -25 2 -14 15 7 8 19 15 26 15
8 0 14 -7 14 -15z"/>
<path d="M91 763 c-12 -14 -21 -38 -21 -52 0 -52 55 -99 93 -79 10 5 24 5 35
-1 34 -18 43 1 40 80 l-3 74 -62 2 c-56 2 -64 0 -82 -24z m87 -51 c4 -28 -24
-40 -45 -19 -14 13 -14 19 -3 32 18 22 44 15 48 -13z"/>
<path d="M650 668 c0 -118 0 -119 23 -116 19 3 23 11 27 53 3 31 8 45 13 38
24 -37 97 13 97 65 0 16 -9 41 -20 55 -18 23 -28 26 -80 26 l-60 -1 0 -120z
m104 55 c4 -9 0 -23 -9 -32 -13 -14 -17 -14 -31 1 -9 9 -14 24 -11 32 8 21 43
20 51 -1z"/>
<path d="M1132 767 c-30 -32 -29 -87 1 -114 29 -27 48 -32 70 -21 10 5 24 5
36 -2 28 -14 34 1 34 84 l0 71 -60 2 c-51 2 -63 -1 -81 -20z m83 -47 c12 -37
-20 -55 -45 -25 -10 12 -10 18 0 30 17 21 37 19 45 -5z"/>
<path d="M1442 672 c3 -105 5 -117 22 -120 25 -5 35 14 29 55 -6 33 -5 33 26
27 67 -14 110 81 61 134 -16 17 -31 21 -80 21 l-61 -1 3 -116z m106 42 c4 -29
-28 -41 -45 -18 -10 13 -10 21 -1 31 16 19 42 12 46 -13z"/>
<path d="M970 695 c0 -24 2 -25 61 -25 57 0 60 1 57 23 -3 19 -10 22 -60 25
-56 3 -58 2 -58 -23z"/>
<path d="M1300 695 c0 -25 1 -26 58 -23 49 3 57 6 57 23 0 17 -8 20 -57 23
-57 3 -58 2 -58 -23z"/>
<path d="M529 448 c-6 -18 -5 -88 2 -88 5 0 9 9 9 20 0 11 7 20 15 20 8 0 15
4 15 10 0 5 -7 7 -15 4 -9 -4 -15 0 -15 9 0 9 10 18 23 20 19 4 18 4 -5 6 -16
0 -28 0 -29 -1z"/>
<path d="M612 438 c-29 -29 -4 -84 35 -76 28 5 26 82 -2 86 -11 1 -26 -3 -33
-10z m43 -18 c7 -22 -11 -53 -26 -44 -5 3 -9 15 -9 28 0 39 24 50 35 16z"/>
<path d="M700 405 c0 -25 5 -45 10 -45 6 0 10 9 10 20 0 11 4 20 9 20 5 0 13
-9 16 -20 3 -11 11 -20 16 -20 6 0 7 5 3 12 -4 6 -7 26 -6 45 1 30 -1 33 -28
33 -29 0 -30 -2 -30 -45z"/>
<path d="M834 425 c9 -13 16 -33 16 -45 0 -30 17 -24 22 8 3 15 8 36 13 47 6
17 4 16 -13 -4 -19 -23 -19 -23 -25 -2 -3 11 -11 21 -17 21 -9 0 -7 -8 4 -25z"/>
<path d="M922 438 c-29 -29 -4 -84 35 -76 28 5 26 82 -2 86 -11 1 -26 -3 -33
-10z m43 -18 c7 -22 -11 -53 -26 -44 -5 3 -9 15 -9 28 0 39 24 50 35 16z"/>
<path d="M1010 421 c0 -44 10 -61 35 -61 25 0 35 17 35 61 0 42 -18 36 -22 -8
-2 -21 -7 -38 -13 -38 -5 0 -11 17 -13 38 -4 44 -22 50 -22 8z"/>
<path d="M1111 403 c1 -26 4 -38 6 -25 5 24 33 31 33 8 0 -8 4 -17 9 -20 5 -4
9 13 8 36 -2 39 -5 43 -29 46 -27 3 -28 2 -27 -45z"/>
<path d="M1240 406 c0 -25 5 -46 10 -46 6 0 10 9 10 20 0 14 6 20 18 18 12 -2
17 4 17 22 0 20 -6 26 -27 28 -27 3 -28 2 -28 -42z"/>
<path d="M1332 408 c2 -36 7 -44 26 -46 12 -2 22 2 22 8 0 6 -7 10 -16 8 -10
-2 -19 3 -21 10 -3 7 4 12 16 12 12 0 21 5 21 10 0 6 -6 10 -12 8 -24 -5 -19
17 4 24 19 5 18 6 -10 7 -33 1 -33 1 -30 -41z"/>
<path d="M1405 440 c4 -6 11 -8 16 -5 5 4 9 -12 9 -34 0 -23 5 -41 10 -41 6 0
10 18 10 41 0 22 4 38 9 34 5 -3 12 -1 16 5 4 6 -10 10 -35 10 -25 0 -39 -4
-35 -10z"/>
</g>
</svg>
